<svg fill="none" height="24" viewBox="0 0 24 24" width="24" xmlns="http://www.w3.org/2000/svg"><path d="m12.55 12.082c0-.4142-.3358-.75-.75-.75s-.75.3358-.75.75zm-.75 6.918h-.75c0 .249.1236.4818.3299.6213s.4684.1675.6995.0747zm5.744-2.306.2794.696c.2843-.1141.4706-.3897.4706-.696zm.75-4.794c0-.4142-.3358-.75-.75-.75s-.75.3358-.75.75zm-6.0386-.4139c-.3291-.2515-.7998-.1886-1.0513.1405s-.1886.7998.1405 1.0513zm1.5926 2.1609-.4554.5959c.223.1704.5224.2021.7761.0821zm4.0137-1.069c.3744-.1772.5344-.6243.3573-.9987-.1772-.3744-.6243-.5344-.9987-.3573zm-6.3411-1.192c-.3844.1543-.5709.591-.4166.9754s.591.5709.9754.4166zm6.3028-.914c.3844-.1543.5709-.59103.4166-.97542s-.591-.57091-.9754-.41659zm-.5587 0c.3844.1543.8211-.0323.9753-.4167.1543-.3844-.0323-.82109-.4167-.97535zm-5.1854-3.69705c-.3844-.15426-.8211.03232-.9753.41673-.1543.38442.0323.82111.4167.97537zm5.8322 2.34827c-.361-.20298-.8183-.07482-1.0213.28625s-.0748.81833.2863 1.02133zm1.6835 1.80678.3203.6782c.2537-.1198.4193-.3712.4292-.6516.01-.2804-.1374-.5429-.382-.6804zm-2.3743.2918c-.3745.1769-.5348.6239-.3579.9985.1769.3745.6239.5348.9985.3579zm-.2358-1.94907c-.2779.30711-.2543.78137.0528 1.05937.3071.2779.7814.2543 1.0594-.0528zm3.0151-2.21373.5561.50327c.1698-.18768.2336-.44839.1694-.69326-.0641-.24488-.2474-.44089-.4875-.52123zm-6.152-2.059.238-.71122c-.2934-.09822-.6171-.0061-.8149.23193zm-2.6299 1.99171c-.2647.3186-.221.79146.0976 1.05616.3186.26471.7915.22102 1.0562-.09758zm-5.44642 2.08824c-.38441.15426-.57099.59095-.41673.97535s.59095.571.97537.4167zm6.30262-.9129c.3844-.15426.571-.59095.4167-.97537-.1542-.38441-.5909-.57099-.9753-.41673zm-5.65577 2.26275c.36107-.203.48923-.66026.28625-1.02133-.20299-.36107-.66024-.48923-1.02131-.28625zm-2.41853.4992-.36753-.6538c-.24445.1374-.39182.3998-.38201.68.00981.2803.17515.5317.42862.6517zm1.73008 1.6489c.37437.1772.82155.0174.99879-.357s.01743-.8215-.35695-.9988zm.60034-3.49791c-.38439-.15432-.82111.0322-.97543.41659s.0322.82112.41659.97542zm5.18518 3.69801c.3844.1543.8211-.0322.9754-.4166s-.0322-.8211-.4166-.9754zm-6.0249-2.5034c.27534.3094.74941.337 1.05886.0617s.33709-.74941.06174-1.05886zm-1.4907-2.8036-.29638-.68895c-.22136.09522-.38348.291-.43576.52623s.01165.48126.17184.66128zm5.744-2.471.5771-.47901c-.2124-.25591-.56798-.34137-.87348-.20994zm1.4739 2.95001c.2645.31873.7374.36264 1.0561.09809s.3627-.73739.0981-1.05611zm1.3271 4.13299c0-.4142-.3358-.75-.75-.75s-.75.3358-.75.75zm-.75 6.917-.2794.696c.2311.0928.4932.0648.6995-.0747s.3299-.3723.3299-.6213zm-5.744-2.306h-.75c0 .3063.1863.5819.47058.696zm.75-4.794c0-.4142-.33579-.75-.75-.75s-.75.3358-.75.75zm5.449.7782c.3293-.2512.3925-.7219.1412-1.0512-.2512-.3293-.7219-.3925-1.0512-.1412zm-2.506.9688-.32072.678c.25351.1199.55274.0884.77572-.0818zm-3.37228-2.425c-.37443-.1771-.82156-.0171-.99869.3573s-.01718.8215.35725.9987zm4.67828.86v6.918h1.5v-6.918zm1.0294 7.614 5.744-2.306-.5588-1.392-5.744 2.306zm6.2146-3.002v-4.794h-1.5v4.794zm-6.9494-4.0161 2.048 1.565.9108-1.1918-2.048-1.565zm2.8241 1.6471 3.693-1.747-.6414-1.356-3.693 1.747zm-2.0893-1.547 5.744-2.306-.5588-1.39201-5.744 2.30601zm5.7439-3.69805-5.744-2.305-.5586 1.3921 5.744 2.30495zm-.6468 1.35085 2.051 1.153.735-1.3076-2.051-1.15298zm2.0982-.179-2.054.97.6406 1.3564 2.054-.97zm-1.1776.0275 2.459-2.71703-1.1122-1.00654-2.459 2.717zm2.1409-3.93152-6.152-2.059-.476 1.42244 6.152 2.059zm-6.9669-1.82707-2.053 2.471 1.1538.95858 2.053-2.471zm-6.94078 5.95129 5.74398-2.30495-.5586-1.3921-5.74402 2.305zm-.64685-1.34978-2.051 1.15298.73506 1.3076 2.051-1.153zm-2.00439 2.48468 2.051.971.64184-1.3558-2.051-.971zm2.0925-1.1349 5.74402 2.306.5588-1.392-5.74398-2.30601zm.83972-1.19456-2.051-2.305-1.1206.99712 2.051 2.30504zm-2.31492-1.11749 5.74402-2.471-.59278-1.3779-5.744 2.471zm4.87052-2.68094 2.051 2.471 1.1542-.95802-2.051-2.471zm1.8781 6.60399v6.917h1.5v-6.917zm1.0294 6.221-5.74398-2.306-.55884 1.392 5.74402 2.306zm-5.2734-1.61v-4.794h-1.5v4.794zm4.539-5.2082-2.05096 1.565.90996 1.1924 2.051-1.565zm-1.2753 1.4832-3.69298-1.747-.64144 1.356 3.693 1.747z" fill="#ff0000" /></svg>